<?xml version="1.0" encoding="UTF-8" standalone="no"?>
<!-- Uploaded to: SVG Repo, www.svgrepo.com, Generator: SVG Repo Mixer Tools -->

<svg
   height="800px"
   width="800px"
   version="1.1"
   id="_x32_"
   viewBox="0 0 512 512"
   xml:space="preserve"
   sodipodi:docname="magnifying-glass.svg"
   inkscape:version="1.3 (0e150ed6c4, 2023-07-21)"
   xmlns:inkscape="http://www.inkscape.org/namespaces/inkscape"
   xmlns:sodipodi="http://sodipodi.sourceforge.net/DTD/sodipodi-0.dtd"
   xmlns="http://www.w3.org/2000/svg"
   xmlns:svg="http://www.w3.org/2000/svg"><defs
   id="defs3" /><sodipodi:namedview
   id="namedview3"
   pagecolor="#ffffff"
   bordercolor="#666666"
   borderopacity="1.0"
   inkscape:showpageshadow="2"
   inkscape:pageopacity="0.0"
   inkscape:pagecheckerboard="0"
   inkscape:deskcolor="#d1d1d1"
   inkscape:zoom="0.68625"
   inkscape:cx="400"
   inkscape:cy="400"
   inkscape:window-width="1366"
   inkscape:window-height="745"
   inkscape:window-x="-8"
   inkscape:window-y="58"
   inkscape:window-maximized="1"
   inkscape:current-layer="g3" />&#10;<style
   type="text/css"
   id="style1">&#10;	.st0{fill:#ffff00;}&#10;</style>&#10;<g
   id="g3">&#10;	<path
   class="st0"
   id="path1" />&quot;#fff&quot; d=&quot;M172.625,102.4c-42.674,0-77.392,34.739-77.392,77.438c0,5.932,4.806,10.74,10.733,10.74&#10;		c5.928,0,10.733-4.808,10.733-10.74c0-30.856,25.088-55.959,55.926-55.959c5.928,0,10.733-4.808,10.733-10.74&#10;		C183.358,107.208,178.553,102.4,172.625,102.4z&quot;/&gt;&#10;	<path
   class="st0"
   d="M361.657,301.511c19.402-30.436,30.645-66.546,30.645-105.244C392.302,88.036,304.318,0,196.151,0   c-38.676,0-74.765,11.25-105.182,30.663C66.734,46.123,46.11,66.759,30.659,91.008C11.257,121.444,0,157.568,0,196.267   c0,108.217,87.998,196.266,196.151,196.266c38.676,0,74.779-11.264,105.197-30.677C325.582,346.396,346.206,325.76,361.657,301.511   z M259.758,320.242c-19.075,9.842-40.708,15.403-63.607,15.403c-76.797,0-139.296-62.535-139.296-139.378   c0-22.912,5.558-44.558,15.394-63.644c13.318-25.856,34.483-47.019,60.323-60.331c19.075-9.842,40.694-15.403,63.578-15.403   c76.812,0,139.296,62.521,139.296,139.378c0,22.898-5.558,44.53-15.394,63.616C306.749,285.739,285.598,306.916,259.758,320.242z"
   id="path2"
   style="fill:#ddfa00;fill-opacity:1" />&#10;	<path
   class="st0"
   d="M499.516,439.154L386.275,326.13c-16.119,23.552-36.771,44.202-60.309,60.345l113.241,113.024   c8.329,8.334,19.246,12.501,30.148,12.501c10.916,0,21.833-4.167,30.162-12.501C516.161,482.83,516.161,455.822,499.516,439.154z"
   id="path3"
   style="fill:#ddfa00;fill-opacity:1" />&#10;</g>&#10;</svg>
